<svg xmlns="http://www.w3.org/2000/svg" viewBox="0 0 16 16" fill="#9dbdd9" id="Linktree-Logo--Streamline-Phosphor" height="16" width="16">
  <desc>
    Linktree Logo Streamline Icon: https://streamlinehq.com
  </desc>
  <path d="M8.56 10.24v5.04c0 0.4310875 -0.46666875 0.70051875 -0.84 0.484975 -0.1732625 -0.1000375 -0.28 -0.28490625 -0.28 -0.484975v-5.04c0 -0.4310875 0.46666875 -0.70051875 0.84 -0.484975 0.1732625 0.1000375 0.28 0.28490625 0.28 0.484975Zm5.04 -4.48h-4.2483l2.9645 -2.9638c0.30499375 -0.30499375 0.16545 -0.82578125 -0.25118125 -0.93741875 -0.19335625 -0.0518125 -0.39966875 0.00346875 -0.54121875 0.14501875L8.56 4.9683V0.72c0 -0.4310875 -0.46666875 -0.70051875 -0.84 -0.484975 -0.1732625 0.1000375 -0.28 0.28490625 -0.28 0.484975v4.2483l-2.9638 -2.9645c-0.30499375 -0.30499375 -0.82578125 -0.16545 -0.93741875 0.25118125 -0.0518125 0.19335625 0.00346875 0.39966875 0.14501875 0.54121875l2.9645 2.9638H2.4c-0.4310875 0.00001875 -0.700525 0.4667 -0.4849625 0.84001875 0.1000375 0.17325625 0.2849 0.27998125 0.4849625 0.27998125h4.2483l-2.9645 2.9638c-0.30499375 0.30499375 -0.16545 0.82578125 0.25118125 0.93741875 0.19335625 0.0518125 0.39966875 -0.00346875 0.54121875 -0.14501875L8 7.1117l3.5238 3.5245c0.30499375 0.30499375 0.82578125 0.16545 0.93741875 -0.25118125 0.0518125 -0.19335625 -0.00346875 -0.39966875 -0.14501875 -0.54121875l-2.9645 -2.9638H13.6c0.4310875 0 0.70051875 -0.46666875 0.484975 -0.84 -0.10003125 -0.17325625 -0.2849125 -0.27999375 -0.484975 -0.28Z" stroke-width="0.0625"></path>
</svg>